[Header]
FileType HTR
DataType HTRS
FileVersion 1
NumSegments 64
NumFrames 2
DataFrameRate 24
EulerRotationOrder ZYX
CalibrationUnits mm
RotationUnits Degrees
GlobalAxisofGravity Y
BoneLengthAxis Y
ScaleFactor 1.0
[SegmentNames&Hierarchy]
Hips	GLOBAL
Spine	Hips
Spine1	Spine
Spine2	Spine1
Neck	Spine2
Head	Neck
LeftEye	Head
RightEye	Head
LeftShoulder	Spine2
LeftArm	LeftShoulder
LeftForeArm	LeftArm
LeftHand	LeftForeArm
LeftHandThumb1	LeftHand
LeftHandThumb2	LeftHandThumb1
LeftHandThumb3	LeftHandThumb2
LeftHandThumb4	LeftHandThumb3
LeftHandIndex1	LeftHand
LeftHandIndex2	LeftHandIndex1
LeftHandIndex3	LeftHandIndex2
LeftHandIndex4	LeftHandIndex3
LeftHandMiddle1	LeftHand
LeftHandMiddle2	LeftHandMiddle1
LeftHandMiddle3	LeftHandMiddle2
LeftHandMiddle4	LeftHandMiddle3
LeftHandRing1	LeftHand
LeftHandRing2	LeftHandRing1
LeftHandRing3	LeftHandRing2
LeftHandRing4	LeftHandRing3
LeftHandPinky1	LeftHand
LeftHandPinky2	LeftHandPinky1
LeftHandPinky3	LeftHandPinky2
LeftHandPinky4	LeftHandPinky3
RightShoulder	Spine2
RightArm	RightShoulder
RightForeArm	RightArm
RightHand	RightForeArm
RightHandPinky1	RightHand
RightHandPinky2	RightHandPinky1
RightHandPinky3	RightHandPinky2
RightHandPinky4	RightHandPinky3
RightHandRing1	RightHand
RightHandRing2	RightHandRing1
RightHandRing3	RightHandRing2
RightHandRing4	RightHandRing3
RightHandMiddle1	RightHand
RightHandMiddle2	RightHandMiddle1
RightHandMiddle3	RightHandMiddle2
RightHandMiddle4	RightHandMiddle3
RightHandIndex1	RightHand
RightHandIndex2	RightHandIndex1
RightHandIndex3	RightHandIndex2
RightHandIndex4	RightHandIndex3
RightHandThumb1	RightHand
RightHandThumb2	RightHandThumb1
RightHandThumb3	RightHandThumb2
RightHandThumb4	RightHandThumb3
LeftUpLeg	Hips
LeftLeg	LeftUpLeg
LeftFoot	LeftLeg
LeftToeBase	LeftFoot
RightUpLeg	Hips
RightLeg	RightUpLeg
RightFoot	RightLeg
RightToeBase	RightFoot
[BasePosition]
Hips	0	0	0	0	0	0	1
Spine	0	0	0	0	0	0	1
Spine1	0	0	0	0	0	0	1
Spine2	0	0	0	0	0	0	1
Neck	0	0	0	0	0	0	1
Head	0	0	0	0	0	0	1
LeftEye	0	0	0	0	0	0	1
RightEye	0	0	0	0	0	0	1
LeftShoulder	0	0	0	0	0	0	1
LeftArm	0	0	0	0	0	0	1
LeftForeArm	0	0	0	0	0	0	1
LeftHand	0	0	0	0	0	0	1
LeftHandThumb1	0	0	0	0	0	0	1
LeftHandThumb2	0	0	0	0	0	0	1
LeftHandThumb3	0	0	0	0	0	0	1
LeftHandThumb4	0	0	0	0	0	0	1
LeftHandIndex1	0	0	0	0	0	0	1
LeftHandIndex2	0	0	0	0	0	0	1
LeftHandIndex3	0	0	0	0	0	0	1
LeftHandIndex4	0	0	0	0	0	0	1
LeftHandMiddle1	0	0	0	0	0	0	1
LeftHandMiddle2	0	0	0	0	0	0	1
LeftHandMiddle3	0	0	0	0	0	0	1
LeftHandMiddle4	0	0	0	0	0	0	1
LeftHandRing1	0	0	0	0	0	0	1
LeftHandRing2	0	0	0	0	0	0	1
LeftHandRing3	0	0	0	0	0	0	1
LeftHandRing4	0	0	0	0	0	0	1
LeftHandPinky1	0	0	0	0	0	0	1
LeftHandPinky2	0	0	0	0	0	0	1
LeftHandPinky3	0	0	0	0	0	0	1
LeftHandPinky4	0	0	0	0	0	0	1
RightShoulder	0	0	0	0	0	0	1
RightArm	0	0	0	0	0	0	1
RightForeArm	0	0	0	0	0	0	1
RightHand	0	0	0	0	0	0	1
RightHandPinky1	0	0	0	0	0	0	1
RightHandPinky2	0	0	0	0	0	0	1
RightHandPinky3	0	0	0	0	0	0	1
RightHandPinky4	0	0	0	0	0	0	1
RightHandRing1	0	0	0	0	0	0	1
RightHandRing2	0	0	0	0	0	0	1
RightHandRing3	0	0	0	0	0	0	1
RightHandRing4	0	0	0	0	0	0	1
RightHandMiddle1	0	0	0	0	0	0	1
RightHandMiddle2	0	0	0	0	0	0	1
RightHandMiddle3	0	0	0	0	0	0	1
RightHandMiddle4	0	0	0	0	0	0	1
RightHandIndex1	0	0	0	0	0	0	1
RightHandIndex2	0	0	0	0	0	0	1
RightHandIndex3	0	0	0	0	0	0	1
RightHandIndex4	0	0	0	0	0	0	1
RightHandThumb1	0	0	0	0	0	0	1
RightHandThumb2	0	0	0	0	0	0	1
RightHandThumb3	0	0	0	0	0	0	1
RightHandThumb4	0	0	0	0	0	0	1
LeftUpLeg	0	0	0	0	0	0	1
LeftLeg	0	0	0	0	0	0	1
LeftFoot	0	0	0	0	0	0	1
LeftToeBase	0	0	0	0	0	0	1
RightUpLeg	0	0	0	0	0	0	1
RightLeg	0	0	0	0	0	0	1
RightFoot	0	0	0	0	0	0	1
RightToeBase	0	0	0	0	0	0	1
[Hips]
1	4.69974041	1016.517029	15.55938148	-1.019480586	1.303280354	-5.373305321	1.0
2	-2.540447712	1014.426147	20.53564262	-1.332400799	4.56905508	-5.416860104	1.0
[Spine]
1	0	101.8159943	1.315000057	1.233510375	-1.26405859	2.978484392	1.0
2	0	101.8159943	1.315000057	1.16141355	-0.7004010677	3.02968359	1.0
[Spine1]
1	0	100.8349991	-10.00800037	0.7521901727	0.1872796267	5.947593689	1.0
2	0	100.8349991	-10.00800037	0.7923880816	0.7859864831	5.79585743	1.0
[Spine2]
1	0	91	-13.73399925	0.7868232131	0.7048845291	5.861687183	1.0
2	0	91	-13.73399925	0.8711581826	1.296861172	5.702379227	1.0
[Neck]
1	0	166.7169952	-25.16200066	1.056077957	-0.2649565041	-2.169209719	1.0
2	0	166.7169952	-25.16200066	0.7758731246	-1.140223026	-2.373544931	1.0
[Head]
1	0	96.17900085	16.84999847	1.4920367	0.7629025578	-8.123029709	1.0
2	0	96.17900085	16.84999847	1.335712194	-1.189154029	-7.90293169	1.0
[LeftEye]
1	30.6760006	64.09500122	92.83599854	0	0	0	1.0
2	30.6760006	64.09500122	92.83599854	0	0	0	1.0
[RightEye]
1	-30.6760006	64.09500122	92.83499908	0	0	0	1.0
2	-30.6760006	64.09500122	92.83499908	0	0	0	1.0
[LeftShoulder]
1	45.70400238	109.4599991	-26.28000069	4.900875568	-13.35861874	-6.051225662	1.0
2	45.70400238	109.4599991	-26.28000069	4.999415874	-13.128829	-6.457623005	1.0
[LeftArm]
1	105.923996	-5.24600029	-22.32099915	-3.048747778	4.395028114	-83.67140198	1.0
2	105.923996	-5.24600029	-22.32099915	-3.921616793	4.615715504	-83.29704285	1.0
[LeftForeArm]
1	278.414978	-0.0009999999311	0	-7.566798104e-07	-14.50674915	-0.0002199816518	1.0
2	278.414978	-0.0009999999311	0	-3.496366787e-07	-14.26433849	-0.0002162977617	1.0
[LeftHand]
1	283.2879944	0	0	-27.77379036	-1.110147476	-10.05005836	1.0
2	283.2879944	0	0	-27.23927116	-2.450212002	-10.2563982	1.0
[LeftHandThumb1]
1	24.6609993	-15.75	26.8239994	18.090168	-3.880750656	10.23082447	1.0
2	24.6609993	-15.75	26.8239994	17.73451996	-4.672145367	10.29185772	1.0
[LeftHandThumb2]
1	32.29800034	-18.64699936	18.64699936	-0.4590618312	32.7769165	-2.855205297	1.0
2	32.29800034	-18.64699936	18.64699936	-0.4760184288	33.17897415	-2.835217714	1.0
[LeftHandThumb3]
1	26.52600098	-15.31499958	15.31499958	2.087862015	9.317596436	-0.01898802444	1.0
2	26.52600098	-15.31499958	15.31499958	2.091674328	9.438197136	-0.006288412493	1.0
[LeftHandThumb4]
1	19.54599953	-11.28499985	11.28499985	0	0	0	1.0
2	19.54599953	-11.28499985	11.28499985	0	0	0	1.0
[LeftHandIndex1]
1	91.09299469	-5.170999527	22.60099792	-0.3012926877	4.670437336	-7.844826698	1.0
2	91.09299469	-5.170999527	22.60099792	-0.382253021	4.782139301	-8.753153801	1.0
[LeftHandIndex2]
1	36.76399994	0	0	-0.6282429099	2.770455837	-20.57312775	1.0
2	36.76399994	0	0	-0.6256534457	2.765650749	-20.51943016	1.0
[LeftHandIndex3]
1	28.83100128	0	0	-0.1097383052	0.8055579662	-10.1707201	1.0
2	28.83100128	0	0	-0.1087971181	0.8002499938	-10.11712646	1.0
[LeftHandIndex4]
1	23.92700005	0	0	0	0	0	1.0
2	23.92700005	0	0	0	0	0	1.0
[LeftHandMiddle1]
1	95.33399963	0	0	-1.521747947	8.67775631	-15.88118458	1.0
2	95.33399963	0	0	-1.596909046	8.77052784	-16.49604607	1.0
[LeftHandMiddle2]
1	36.98199844	0	0	-1.42689085	3.823395491	-33.41778564	1.0
2	36.98199844	0	0	-1.427867413	3.824455976	-33.43203735	1.0
[LeftHandMiddle3]
1	29.50900078	0	0	-0.1490252018	1.48564589	-12.26479912	1.0
2	29.50900078	0	0	-0.1493641287	1.487080693	-12.27962399	1.0
[LeftHandMiddle4]
1	28.3390007	0	0	0	0	0	1.0
2	28.3390007	0	0	0	0	0	1.0
[LeftHandRing1]
1	91.04499817	-0.4390000105	-18.65100098	-3.023369789	11.54989052	-26.95898056	1.0
2	91.04499817	-0.4390000105	-18.65100098	-3.092619896	11.55116653	-27.48807716	1.0
[LeftHandRing2]
1	31.54000092	0	0	-1.197488785	4.055519104	-40.20160675	1.0
2	31.54000092	0	0	-1.196059823	4.05369091	-40.17815781	1.0
[LeftHandRing3]
1	29.37700081	0	0	-0.09223858267	1.903374314	-19.33779907	1.0
2	29.37700081	0	0	-0.09166894108	1.901040077	-19.31362152	1.0
[LeftHandRing4]
1	26.47500038	0	0	0	0	0	1.0
2	26.47500038	0	0	0	0	0	1.0
[LeftHandPinky1]
1	80.77799988	-4.887000084	-38.06099701	-5.222198486	16.12825966	-36.90262604	1.0
2	80.77799988	-4.887000084	-38.06099701	-5.300228596	16.19917297	-37.41411591	1.0
[LeftHandPinky2]
1	36	0	0	-1.945593357	3.817508698	-45.6631813	1.0
2	36	0	0	-1.938196301	3.811014175	-45.5644455	1.0
[LeftHandPinky3]
1	21.14200211	0	0	-0.5433572531	2.833762407	-20.52733612	1.0
2	21.14200211	0	0	-0.5391402245	2.824850321	-20.42888832	1.0
[LeftHandPinky4]
1	19.75699997	0	0	0	0	0	1.0
2	19.75699997	0	0	0	0	0	1.0
[RightShoulder]
1	-45.70000076	109.4620056	-26.28000069	4.81045723	2.868920803	5.722983837	1.0
2	-45.70000076	109.4620056	-26.28000069	4.79194355	3.141752243	5.462717533	1.0
[RightArm]
1	-105.9280014	-5.248000145	-22.32099915	0.1354194134	1.378135562	67.34007263	1.0
2	-105.9280014	-5.248000145	-22.32099915	0.1860461235	0.8375583291	67.76170349	1.0
[RightForeArm]
1	-278.414978	0	0	-3.899013791e-06	17.73657799	-1.325517132e-05	1.0
2	-278.414978	0	0	-6.375991006e-07	17.47889519	-4.550649464e-06	1.0
[RightHand]
1	-283.2879944	0	0.0009999999311	-12.68406582	-6.830768585	11.79687309	1.0
2	-283.2879944	0	0.0009999999311	-12.58756542	-7.320654392	11.91425133	1.0
[RightHandPinky1]
1	-80.76699829	-4.885000229	-38.06000137	-5.222105026	-16.12935829	36.9029541	1.0
2	-80.76699829	-4.885000229	-38.06000137	-5.21296978	-16.17482567	36.81262589	1.0
[RightHandPinky2]
1	-36	0	0.0009999999311	-1.944217086	-3.81581974	45.66313934	1.0
2	-36	0	0.0009999999311	-1.944421053	-3.815999031	45.66583633	1.0
[RightHandPinky3]
1	-21.14200211	0	0	-0.7654330134	0.05478059128	22.12398148	1.0
2	-21.14200211	0	0	-0.7655561566	0.05454143509	22.12667084	1.0
[RightHandPinky4]
1	-19.75699997	0	0	0	0	0	1.0
2	-19.75699997	0	0	0	0	0	1.0
[RightHandRing1]
1	-91.03599548	-0.4390000105	-18.65100098	-3.023298502	-11.54953098	26.95913506	1.0
2	-91.03599548	-0.4390000105	-18.65100098	-3.013790131	-11.56561565	26.88002968	1.0
[RightHandRing2]
1	-31.54000092	0	0	-1.197300673	-4.055002213	40.2016449	1.0
2	-31.54000092	0	0	-1.197707295	-4.055522442	40.20833969	1.0
[RightHandRing3]
1	-29.37700081	0	0	-0.1383107752	0.09006395936	17.81516075	1.0
2	-29.37700081	0	0	-0.138463974	0.0893516764	17.82246971	1.0
[RightHandRing4]
1	-26.47500038	0	0	0	0	0	1.0
2	-26.47500038	0	0	0	0	0	1.0
[RightHandMiddle1]
1	-95.32500458	0	0	-1.521723866	-8.677534103	15.88127804	1.0
2	-95.32500458	0	0	-1.507573843	-8.675720215	15.76304436	1.0
[RightHandMiddle2]
1	-36.98199844	0	0	-1.426759243	-3.8229599	33.41785049	1.0
2	-36.98199844	0	0	-1.426465869	-3.822642803	33.41360092	1.0
[RightHandMiddle3]
1	-29.50900078	0	0	-0.2534600794	-1.678245902	15.89936543	1.0
2	-29.50900078	0	0	-0.2533415854	-1.67786026	15.89531803	1.0
[RightHandMiddle4]
1	-28.3390007	0	0.0009999999311	0	0	0	1.0
2	-28.3390007	0	0.0009999999311	0	0	0	1.0
[RightHandIndex1]
1	-91.08300018	-5.167999744	22.60099792	-0.3012940586	-4.670324802	7.844911098	1.0
2	-91.08300018	-5.167999744	22.60099792	-0.2855055034	-4.681397438	7.738079071	1.0
[RightHandIndex2]
1	-36.76399994	0	0	-0.6281921864	-2.770177364	20.57315445	1.0
2	-36.76399994	0	0	-0.6278610826	-2.769562721	20.56629562	1.0
[RightHandIndex3]
1	-28.83100128	0	0	-0.2385094613	-0.1574727744	13.84471607	1.0
2	-28.83100128	0	0	-0.2383446097	-0.1568052471	13.83787537	1.0
[RightHandIndex4]
1	-23.92700005	0	0	0	0	0	1.0
2	-23.92700005	0	0	0	0	0	1.0
[RightHandThumb1]
1	-24.64799881	-15.72700024	26.82600021	18.08984756	3.880959034	-10.23103809	1.0
2	-24.64799881	-15.72700024	26.82600021	18.17990494	3.802994251	-10.20867157	1.0
[RightHandThumb2]
1	-32.29800034	-18.64699936	18.64699936	-0.4598074257	-32.77558899	2.856958389	1.0
2	-32.29800034	-18.64699936	18.64699936	-0.4288292527	-32.70070648	2.806063175	1.0
[RightHandThumb3]
1	-26.52600098	-15.31399918	15.31399918	1.86627233	-8.463834763	0.8300228119	1.0
2	-26.52600098	-15.31399918	15.31399918	1.87189877	-8.482392311	0.8350251317	1.0
[RightHandThumb4]
1	-19.54599953	-11.28499985	11.28499985	0	0	0	1.0
2	-19.54599953	-11.28499985	11.28499985	0	0	0	1.0
[LeftUpLeg]
1	82.07800293	-67.51699829	-15.99599934	-16.47146034	15.18130398	11.84121227	1.0
2	82.07800293	-67.51699829	-15.99599934	-17.20480156	15.02589798	12.02002335	1.0
[LeftLeg]
1	0	-443.7049866	2.845999956	22.67149353	7.900726795	5.783955574	1.0
2	0	-443.7049866	2.845999956	22.98726273	6.057359219	4.997609615	1.0
[LeftFoot]
1	0	-444.2789917	-29.8219986	-2.009530544	3.081576824	-8.87642765	1.0
2	0	-444.2789917	-29.8219986	-1.934259295	1.826494098	-8.851635933	1.0
[LeftToeBase]
1	0	-87.28699493	107.1060028	-0.4328366518	-3.985232524e-06	3.502759228e-06	1.0
2	0	-87.28699493	107.1060028	-0.5236946344	-1.249092861e-06	1.761435897e-06	1.0
[RightUpLeg]
1	-82.07800293	-67.51699829	-15.99599934	-2.491523743	-4.585014343	10.7162199	1.0
2	-82.07800293	-67.51699829	-15.99599934	-2.234993696	-5.767564297	11.1790905	1.0
[RightLeg]
1	0	-443.7049866	2.861999989	12.18077564	-5.663739681	2.108556986	1.0
2	0	-443.7049866	2.861999989	12.12966633	-7.417144299	2.143703222	1.0
[RightFoot]
1	0	-444.2770081	-29.83799934	-9.877943039	-0.3346452713	-7.818673134	1.0
2	0	-444.2770081	-29.83799934	-10.56002617	-0.8137393594	-8.196679115	1.0
[RightToeBase]
1	0	-87.28699493	107.1060028	-0.5217356086	-5.006406354e-06	-1.803578584e-06	1.0
2	0	-87.28699493	107.1060028	-0.5215831399	-1.589405542e-06	-2.050666126e-06	1.0
[EndOfFile]
